<svg xmlns="http://www.w3.org/2000/svg"
  xmlns:xlink="http://www.w3.org/1999/xlink"
  width="1300" height="1800">

<defs>

  <g id="object" stroke="black" stroke-width="3" fill="none">
    
    <path d="M250 650 C0 400 -38 200 30 100
            C130 -33 370 -33 470 100
            C538 200 500 400 250 650
            L220 700 280 700 Z
            M250 1050 Q230 1020 250 1020 T250 1050 Z
            M250 700 Q257 900 250 1020
            M235 1010 Q250 1010 252 980
            M265 1005 Q260 950 252 980" />

  </g>
  
  <g id="jun" stroke="black" stroke-width="2" fill="none">

    <path d="M2 1 C50 15 -33 40 23 34
            M36 4 C34 6 17 35 38 34
            C54 35 47 -10 36 4 Z
            M65 1 Q60 7 60 35
            M97 9 C97 -7 64 5 85 15
            Q97 20 97 9
            Q95 30 97 35
            M124 2 C145 -5 145 11 124 12
            M134 10 Q140 10 145 14
            M123 19 C140 15 157 21 137 28
            M127 24 C130 37 130 36 145 33" />
  
  </g>

</defs>

  <use xlink:href="#object" x="400" y="390" />

  <use xlink:href="#jun" x="1000" y="1600" />

</svg>
