<svg xmlns="http://www.w3.org/2000/svg"
  xmlns:xlink="http://www.w3.org/1999/xlink"
  width="1300" height="1800">

<defs>

  <g id="object" stroke="black" stroke-width="3" fill="none">

    <path d="M100 50 Q-55 10 30 210
						Q-70 470 180 370
						Q290 500 500 380
						Q640 450 580 170
						Q663 -50 400 70
						Q190 -59 100 50 Z
						M250 799 Q285 750 250 750 T250 799 Z
						M250 424 Q261 600 250 750
						M230 730 Q250 730 253 700
						M270 710 Q270 670 254 680" />

  </g>
  
  <g id="jun" stroke="black" stroke-width="2" fill="none">

    <path d="M2 1 C50 15 -33 40 23 34
            M36 4 C34 6 17 35 38 34
            C54 35 47 -10 36 4 Z
            M65 1 Q60 7 60 35
            M97 9 C97 -7 64 5 85 15
            Q97 20 97 9
            Q95 30 97 35
            M124 2 C145 -5 145 11 124 12
            M134 10 Q140 10 145 14
            M123 19 C140 15 157 21 137 28
            M127 24 C130 37 130 36 145 33" />
  
  </g>

</defs>

  <use xlink:href="#object" x="350" y="500" />

  <use xlink:href="#jun" x="1050" y="1550" />

</svg>
