<svg xmlns="http://www.w3.org/2000/svg"
  xmlns:xlink="http://www.w3.org/1999/xlink"
  width="1800" height="1300">

<defs>

  <g id="object" stroke="black" stroke-width="3" fill="none">

	<path d="M0 0 500 0 500 20 0 20" />

  </g>

  
  <g id="flower" stroke="black" stroke-width="3" fill="none">

	<path d="M100 0 Q80 20 100 20 T100 0 Z
			M100 20 Q80 60 100 300
			M0 60 Q50 130 92 150
			M200 70 Q150 100 93 200" />

  </g>

  <g id="jun" stroke="black" stroke-width="2" fill="none">

    <path d="M2 1 C50 15 -33 40 23 34
            M36 4 C34 6 17 35 38 34
            C54 35 47 -10 36 4 Z
            M65 1 Q60 7 60 35
            M97 9 C97 -7 64 5 85 15
            Q97 20 97 9
            Q95 30 97 35
            M124 2 C145 -5 145 11 124 12
            M134 10 Q140 10 145 14
            M123 19 C140 15 157 21 137 28
            M127 24 C130 37 130 36 145 33" />

  </g>

</defs>

  <use xlink:href="#object" x="400" y="930" />
  
  <use xlink:href="#flower" x="1100" y="-700" transform="rotate(55 0 0)" />
  
  <use xlink:href="#jun" x="1490" y="1150" />

</svg>
