<svg xmlns="http://www.w3.org/2000/svg"
  xmlns:xlink="http://www.w3.org/1999/xlink"
  width="1300" height="1800">

<defs>

  <g id="object" stroke="black" stroke-width="3" fill="none">

    <rect x="0" y="150"
        height="400" width="350"
        rx="10" ry="10" />
    
    <path d="M90 150 C90 0 90 0 175 0
            C260 0 260 0 260 150" />

  </g>

  <g id="flower" stroke="black" stroke-width="3" fill="none">
    
    <path d="M100 0 Q-30 200 100 200 T100 0 Z
            M100 200 Q110 270 100 400
            M0 220 Q100 220 105 280
            M200 230 Q115 220 104.1 330" />

  </g>

  <g id="jun" stroke="black" stroke-width="2" fill="none">

    <path d="M2 1 C50 15 -33 40 23 34
            M36 4 C34 6 17 35 38 34
            C54 35 47 -10 36 4 Z
            M65 1 Q60 7 60 35
            M97 9 C97 -7 64 5 85 15
            Q97 20 97 9
            Q95 30 97 35
            M124 2 C145 -5 145 11 124 12
            M134 10 Q140 10 145 14
            M123 19 C140 15 157 21 137 28
            M127 24 C130 37 130 36 145 33" />

  </g>

</defs>

  <use xlink:href="#object" x="475" y="400" />

  <use xlink:href="#flower" x="550" y="1000" />

  <use xlink:href="#jun" x="980" y="1600" />

</svg>
