<svg xmlns="http://www.w3.org/2000/svg"
  xmlns:xlink="http://www.w3.org/1999/xlink"
  width="1300" height="1800">

<defs>

  <g id="object" stroke="black" stroke-width="3" fill="none">
    
    <path d="M0 30 600 30 600 800 0 800 Z
			M50 0 50 60
			M100 0 100 60
			M150 1 Q160 15 150 15 T150 1 Z
			M150 15 Q155 40 150 60
			M140 20 Q150 20 152.2 30
			M160 22 Q159 40 152 40
			M200 0 200 60
			M250 0 250 60
			M300 0 300 60
			M350 0 350 60
			M400 0 400 60
			M450 0 450 60
			M500 0 500 60
			M550 0 550 60" />

  </g>
  
  <g id="jun" stroke="black" stroke-width="2" fill="none">

    <path d="M2 1 C50 15 -33 40 23 34
            M36 4 C34 6 17 35 38 34
            C54 35 47 -10 36 4 Z
            M65 1 Q60 7 60 35
            M97 9 C97 -7 64 5 85 15
            Q97 20 97 9
            Q95 30 97 35
            M124 2 C145 -5 145 11 124 12
            M134 10 Q140 10 145 14
            M123 19 C140 15 157 21 137 28
            M127 24 C130 37 130 36 145 33" />
  
  </g>

</defs>

  <use xlink:href="#object" x="350" y="500" />

  <use xlink:href="#jun" x="1050" y="1520" />

</svg>
