<svg xmlns="http://www.w3.org/2000/svg"
  xmlns:xlink="http://www.w3.org/1999/xlink"
  width="1300" height="1800">

<defs>

  <g id="object" stroke="black" stroke-width="3" fill="none">
    
    <path d="M90 250 90 30
			C90 0 90 0 105 0
			C120 0 120 0 120 30
			L120 250
			M295 1 Q265 35 295 35 T 295 1 Z
			M295 35 Q299 100 295 250
			M280 50 Q290 60 297 100
			M310 60 Q310 90 297 130
			M180 850 180 700
			C180 650 0 750 0 310
			C0 250 0 250 60 250
			L340 250
			C400 250 400 250 400 310
			C400 750 220 650 220 700
			L220 850" />

  </g>
  
  <g id="jun" stroke="black" stroke-width="2" fill="none">

    <path d="M2 1 C50 15 -33 40 23 34
            M36 4 C34 6 17 35 38 34
            C54 35 47 -10 36 4 Z
            M65 1 Q60 7 60 35
            M97 9 C97 -7 64 5 85 15
            Q97 20 97 9
            Q95 30 97 35
            M124 2 C145 -5 145 11 124 12
            M134 10 Q140 10 145 14
            M123 19 C140 15 157 21 137 28
            M127 24 C130 37 130 36 145 33" />
  
  </g>

</defs>

  <use xlink:href="#object" x="450" y="475" />

  <use xlink:href="#jun" x="980" y="1520" />

</svg>
