<svg xmlns="http://www.w3.org/2000/svg"
  xmlns:xlink="http://www.w3.org/1999/xlink"
  width="1300" height="1800">

<defs>

  <g id="object" stroke="black" stroke-width="3" fill="none">
    
    <path d="M30 70 C0 70 0 70 0 100
            L0 230 C0 260 0 260 30 260
            L570 260 C600 260 600 260 600 230
            L600 100 C600 70 600 70 570 70 Z
            M15 260 15 585
            C15 600 15 600 45 600
            L555 600 C585 600 585 600 585 585
            L585 260
            M300 1 Q270 30 300 30 T300 1 Z
            M300 30 Q310 350 300 600
            M280 35 Q300 30 301 60
            M320 36 Q315 73 301 60" />

  </g>
  
  <g id="jun" stroke="black" stroke-width="2" fill="none">

    <path d="M2 1 C50 15 -33 40 23 34
            M36 4 C34 6 17 35 38 34
            C54 35 47 -10 36 4 Z
            M65 1 Q60 7 60 35
            M97 9 C97 -7 64 5 85 15
            Q97 20 97 9
            Q95 30 97 35
            M124 2 C145 -5 145 11 124 12
            M134 10 Q140 10 145 14
            M123 19 C140 15 157 21 137 28
            M127 24 C130 37 130 36 145 33" />
  
  </g>

</defs>

  <use xlink:href="#object" x="350" y="600" />

  <use xlink:href="#jun" x="1050" y="1500" />

</svg>
