<svg xmlns="http://www.w3.org/2000/svg"
  xmlns:xlink="http://www.w3.org/1999/xlink"
  width="1300" height="1800">

<defs>

  <g id="object" stroke="black" stroke-width="3" fill="none">

	<path d="M0 600 0 0 700 0 700 600
			M250 470 450 470 450 480 250 480 Z
			M260 0 260 470
			M440 0 Q450 300 440 450
			M440 466 Q450 450 440 450 T440 466 Z
			M450 450 Q450 440 441 435
			M430 445 Q440 440 441.8 420" />

  </g>

  <g id="jun" stroke="black" stroke-width="2" fill="none">

    <path d="M2 1 C50 15 -33 40 23 34
            M36 4 C34 6 17 35 38 34
            C54 35 47 -10 36 4 Z
            M65 1 Q60 7 60 35
            M97 9 C97 -7 64 5 85 15
            Q97 20 97 9
            Q95 30 97 35
            M124 2 C145 -5 145 11 124 12
            M134 10 Q140 10 145 14
            M123 19 C140 15 157 21 137 28
            M127 24 C130 37 130 36 145 33" />

  </g>

</defs>

  <use xlink:href="#object" x="300" y="600" />
  
  <use xlink:href="#jun" x="1050" y="1500" />

</svg>
